<svg xmlns="http://www.w3.org/2000/svg" viewBox="0 0 150 150" fill="none" stroke="#D4AF37">
  <!-- Outer border -->
  <path d="M140,140 L10,140 M140,140 L140,10" stroke-width="2"/>
  <path d="M130,130 L30,130 M130,130 L130,30" stroke-width="1"/>
  
  <!-- Corner Mandala -->
  <path d="M 140 140 A 100 100 0 0 0 40 40" stroke-width="1" stroke-dasharray="4 4" />
  <path d="M 140 140 A 80 80 0 0 0 60 60" stroke-width="2" />
  <path d="M 140 140 A 60 60 0 0 0 80 80" stroke-width="1" />
  
  <!-- Floral Petals from Corner -->
  <path d="M 140 140 Q 100 120 80 80 Q 120 100 140 140" stroke-width="1.5" />
  <path d="M 140 140 Q 80 140 60 60 Q 140 80 140 140" stroke-width="1" />
  <path d="M 140 140 Q 60 120 40 40 Q 120 60 140 140" stroke-width="1" />
  
  <circle cx="110" cy="110" r="10" stroke-width="1.5" />
  <circle cx="110" cy="110" r="3" fill="#D4AF37" />
</svg>
