<svg xmlns="http://www.w3.org/2000/svg" viewBox="0 0 150 150" fill="none" stroke="#D4AF37">
  <!-- Outer border -->
  <path d="M10,10 L140,10 M10,10 L10,140" stroke-width="2"/>
  <path d="M20,20 L120,20 M20,20 L20,120" stroke-width="1"/>
  
  <!-- Corner Mandala -->
  <path d="M 10 10 A 100 100 0 0 0 110 110" stroke-width="1" stroke-dasharray="4 4" />
  <path d="M 10 10 A 80 80 0 0 0 90 90" stroke-width="2" />
  <path d="M 10 10 A 60 60 0 0 0 70 70" stroke-width="1" />
  
  <!-- Floral Petals from Corner -->
  <path d="M 10 10 Q 50 30 70 70 Q 30 50 10 10" stroke-width="1.5" />
  <path d="M 10 10 Q 70 10 90 90 Q 10 70 10 10" stroke-width="1" />
  <path d="M 10 10 Q 90 30 110 110 Q 30 90 10 10" stroke-width="1" />
  
  <circle cx="40" cy="40" r="10" stroke-width="1.5" />
  <circle cx="40" cy="40" r="3" fill="#D4AF37" />
</svg>
